<svg xmlns="http://www.w3.org/2000/svg" width="1280" height="400" viewBox="0 0 1280 400" fill="none">
  <rect width="1280" height="400" rx="20" fill="#102D3A"/>
  <path d="M0 360H1280" stroke="#2A4855"/>
  <g font-family="Segoe UI,Microsoft YaHei,sans-serif">
    <rect x="48" y="45" width="8" height="8" rx="2" fill="#35C9AD"/>
    <text x="68" y="54" font-size="13" fill="#B5D0DB" letter-spacing="2">LOCAL AI WORKSPACE</text>
    <text x="46" y="125" font-size="53" font-weight="650" fill="#F4FAFC" letter-spacing="-2">WebChat2api</text>
    <text x="48" y="191" font-size="28" font-weight="500" fill="#E0F0F5">把网页对话，接入你的工作流。</text>
    <text x="48" y="236" font-size="17" fill="#AAC7D3">账号管理 · 会话接续 · 兼容接口</text>
    <rect x="48" y="276" width="123" height="34" rx="6" fill="#24434F"/>
    <text x="67" y="298" font-size="13" fill="#D9EAF0">中文 / English</text>
    <rect x="183" y="276" width="98" height="34" rx="6" fill="#24434F"/>
    <text x="202" y="298" font-size="13" fill="#D9EAF0">GPL v3</text>
    <text x="48" y="384" font-size="12" fill="#AAC7D3">DESKTOP · LOCAL-FIRST · OPEN SOURCE</text>
    <text x="1232" y="384" text-anchor="end" font-size="12" fill="#AAC7D3">WINDOWS / macOS / LINUX</text>
    <path d="M865 108H914V270H865M914 192H967" stroke="#5E8B9A" stroke-width="2"/>
    <rect x="704" y="73" width="162" height="70" rx="12" fill="#1A3B48" stroke="#3A5C6A"/>
    <rect x="704" y="154" width="162" height="70" rx="12" fill="#1A3B48" stroke="#3A5C6A"/>
    <rect x="704" y="235" width="162" height="70" rx="12" fill="#1A3B48" stroke="#3A5C6A"/>
    <circle cx="730" cy="108" r="4" fill="#35C9AD"/>
    <circle cx="730" cy="189" r="4" fill="#35C9AD"/>
    <circle cx="730" cy="270" r="4" fill="#35C9AD"/>
    <text x="747" y="114" font-size="17" fill="#E0F0F5">DeepSeek</text>
    <text x="747" y="195" font-size="17" fill="#E0F0F5">GLM</text>
    <text x="747" y="276" font-size="17" fill="#E0F0F5">Arena</text>
    <rect x="967" y="134" width="250" height="115" rx="14" fill="#EAF8F5"/>
    <path d="M994 161L987 168L994 175M1011 161L1018 168L1011 175" stroke="#087F8C" stroke-width="2.5" stroke-linecap="round" stroke-linejoin="round"/>
    <text x="1035" y="174" font-size="16" font-weight="600" fill="#173D49">兼容接口</text>
    <text x="987" y="209" font-size="14" fill="#315F6D" font-family="Consolas,monospace">/v1/chat/completions</text>
    <text x="987" y="232" font-size="14" fill="#315F6D" font-family="Consolas,monospace">/v1/messages</text>
  </g>
</svg>
